Coordinates
version=1
nRows=24
nColumns=38
inDegrees=no

Units are S.I. units (second, meters, Newtons, ...)
If the header above contains a line with 'inDegrees', this indicates whether rotational values are in degrees (yes) or radians (no).

endheader
time	pelvis_tilt	pelvis_list	pelvis_rotation	pelvis_tx	pelvis_ty	pelvis_tz	hip_flexion_r	hip_adduction_r	hip_rotation_r	knee_angle_r	ankle_angle_r	subtalar_angle_r	mtp_angle_r	hip_flexion_l	hip_adduction_l	hip_rotation_l	knee_angle_l	ankle_angle_l	subtalar_angle_l	mtp_angle_l	lumbar_extension	lumbar_bending	lumbar_rotation	arm_flex_r	arm_add_r	arm_rot_r	elbow_flex_r	pro_sup_r	wrist_flex_r	wrist_dev_r	arm_flex_l	arm_add_l	arm_rot_l	elbow_flex_l	pro_sup_l	wrist_flex_l	wrist_dev_l
1.74	-2.03831	1.53459	0.567579	0.728717	0.385424	0.944908	0.434362	-0.111648	-0.072776	1.31989	-0.35538	0	0	0.0305174	0.00694926	-0.1136	0.322425	-0.193659	0	0	-0.0512083	0.0684768	-0.110759	-0.141431	-0.331981	0.23301	0.839781	1.51623	0	0	-0.0143609	-0.278148	0.33531	0.818443	1.5708	0	0
1.75	-1.97172	1.53196	0.502665	0.729176	0.377487	0.945219	0.452337	-0.110154	-0.0774929	1.30091	-0.344864	0	0	0.0173775	0.00256263	-0.115098	0.316949	-0.191486	0	0	-0.0518299	0.0738797	-0.116037	-0.136515	-0.345145	0.256357	0.84175	1.47164	0	0	-0.00696673	-0.278048	0.331283	0.829184	1.5708	0	0
1.76	-1.59361	1.53335	0.132218	0.730748	0.369096	0.946514	0.460607	-0.125938	-0.163	1.282	-0.352584	0	0	-0.0123141	-0.000280696	-0.115105	0.305892	-0.192002	0	0	-0.070101	0.0804461	-0.122157	-0.143017	-0.344489	0.231845	0.85143	1.48132	0	0	0.00237819	-0.275169	0.32317	0.844409	1.5708	0	0
1.77	-1.49551	1.53018	0.0368198	0.731218	0.361077	0.946823	0.472304	-0.125041	-0.175945	1.25045	-0.348385	0	0	-0.0290532	-0.0047097	-0.114487	0.298736	-0.190491	0	0	-0.0770439	0.0861345	-0.124491	-0.146188	-0.343457	0.215179	0.855618	1.48786	0	0	0.0105063	-0.273353	0.315848	0.858514	1.5708	0	0
1.78	-1.45314	1.52742	-0.00400032	0.731423	0.35311	0.94682	0.484227	-0.122343	-0.181873	1.21457	-0.34314	0	0	-0.0433423	-0.0086517	-0.113871	0.292727	-0.188079	0	0	-0.0819554	0.0907756	-0.126188	-0.148053	-0.342217	0.200921	0.858461	1.49361	0	0	0.0177453	-0.271807	0.308032	0.872678	1.5708	0	0
1.79	-1.44855	1.52548	-0.00777761	0.731476	0.345162	0.946567	0.496105	-0.118868	-0.183902	1.17432	-0.339893	0	0	-0.0554265	-0.0118423	-0.113951	0.28788	-0.185239	0	0	-0.0849074	0.0942634	-0.12765	-0.148775	-0.341154	0.189551	0.860019	1.49798	0	0	0.024381	-0.270739	0.300812	0.886421	1.5708	0	0
1.8	-1.46527	1.52415	0.00936918	0.731442	0.337199	0.946145	0.506728	-0.114846	-0.18322	1.12904	-0.338812	0	0	-0.0661226	-0.0145236	-0.114241	0.284006	-0.182033	0	0	-0.0867554	0.0969154	-0.129109	-0.148459	-0.340018	0.179983	0.860352	1.50188	0	0	0.0305033	-0.269989	0.294024	0.900035	1.5708	0	0
1.81	-1.46688	1.52304	0.0110381	0.73137	0.329234	0.945668	0.5138	-0.110461	-0.180905	1.07868	-0.339645	0	0	-0.0774319	-0.0170814	-0.115214	0.280733	-0.178325	0	0	-0.0851648	0.0985043	-0.149589	-0.113968	-0.375973	0.288	0.851716	1.36993	0	0	0.0197333	-0.269995	0.262988	0.920586	1.5708	0	0
1.82	-1.50849	1.52265	0.0525171	0.731173	0.321199	0.945008	0.520175	-0.106014	-0.176718	1.02362	-0.340508	0	0	-0.0865645	-0.0188087	-0.115087	0.277788	-0.175075	0	0	-0.0917387	0.100563	-0.136066	-0.143104	-0.329078	0.149892	0.854851	1.54589	0	0	0.0358974	-0.267239	0.268734	0.931863	1.5708	0	0
1.83	-1.55502	1.52234	0.0986282	0.730971	0.31311	0.944197	0.523993	-0.101825	-0.172032	0.964744	-0.339244	0	0	-0.0951931	-0.0203462	-0.114938	0.275748	-0.171308	0	0	-0.0913857	0.101723	-0.137789	-0.139177	-0.330174	0.150655	0.851707	1.54368	0	0	0.0409381	-0.266984	0.263807	0.943245	1.5708	0	0
1.84	-1.61836	1.52215	0.1612	0.730684	0.304907	0.943203	0.526017	-0.0979635	-0.166797	0.902596	-0.335447	0	0	-0.102965	-0.0214611	-0.115098	0.273735	-0.167496	0	0	-0.0900003	0.102408	-0.138901	-0.135504	-0.331305	0.152146	0.84842	1.54058	0	0	0.0457385	-0.266854	0.259853	0.953797	1.5708	0	0
1.85	-1.68881	1.52175	0.230726	0.730322	0.296581	0.942069	0.525416	-0.0940817	-0.161255	0.83586	-0.330236	0	0	-0.110042	-0.0225474	-0.115789	0.272563	-0.163018	0	0	-0.0880254	0.10286	-0.140044	-0.131499	-0.33257	0.155244	0.844589	1.5356	0	0	0.0497191	-0.266632	0.255545	0.963892	1.5708	0	0
1.86	-1.7691	1.52133	0.310181	0.729904	0.288162	0.940763	0.522691	-0.0907508	-0.155511	0.765292	-0.324491	0	0	-0.116591	-0.023506	-0.115961	0.271723	-0.158166	0	0	-0.0852973	0.10287	-0.141168	-0.127663	-0.333945	0.159294	0.84079	1.52895	0	0	0.0533398	-0.266453	0.251668	0.973183	1.5708	0	0
1.87	-1.83655	1.52141	0.376534	0.729435	0.279691	0.939355	0.51708	-0.0881625	-0.149076	0.691853	-0.318573	0	0	-0.123991	-0.0237329	-0.116961	0.270976	-0.153455	0	0	-0.0833469	0.102255	-0.141948	-0.123699	-0.335612	0.164594	0.837345	1.52062	0	0	0.05673	-0.266345	0.248115	0.981874	1.5708	0	0
1.88	-1.938	1.52137	0.476601	0.72889	0.271076	0.937676	0.511833	-0.0864109	-0.140981	0.617781	-0.310313	0	0	-0.129592	-0.0230799	-0.11764	0.271575	-0.148385	0	0	-0.0788516	0.100615	-0.141225	-0.120626	-0.339099	0.174085	0.834169	1.50392	0	0	0.061014	-0.266387	0.247873	0.987753	1.5708	0	0
1.89	-2.00258	1.52167	0.540161	0.72835	0.262325	0.936119	0.50097	-0.0841552	-0.13153	0.53821	-0.30459	0	0	-0.137663	-0.0227792	-0.118316	0.271766	-0.14345	0	0	-0.0778391	0.0994767	-0.138952	-0.121423	-0.335268	0.163206	0.832281	1.51585	0	0	0.0658639	-0.265461	0.247273	0.993602	1.5708	0	0
1.9	-2.05197	1.52224	0.588815	0.727822	0.253415	0.93459	0.486201	-0.0819727	-0.120501	0.455389	-0.301318	0	0	-0.14651	-0.0224009	-0.119183	0.272433	-0.138687	0	0	-0.077555	0.0984485	-0.136981	-0.122107	-0.33214	0.154373	0.830849	1.52622	0	0	0.0701444	-0.264068	0.246073	0.998372	1.5708	0	0
1.91	-2.08179	1.52334	0.617948	0.727193	0.24433	0.933104	0.467548	-0.0796821	-0.107308	0.370305	-0.302911	0	0	-0.156639	-0.0224272	-0.120608	0.273228	-0.134372	0	0	-0.078311	0.0973898	-0.135038	-0.122831	-0.329066	0.146333	0.82984	1.53733	0	0	0.0739325	-0.262857	0.245246	1.00212	1.5708	0	0
1.92	-2.11307	1.52456	0.648527	0.726462	0.235112	0.93155	0.448791	-0.0780261	-0.0934056	0.289422	-0.307062	0	0	-0.166616	-0.0225486	-0.12221	0.274529	-0.130494	0	0	-0.0789163	0.0961027	-0.133027	-0.123545	-0.32654	0.1402	0.829135	1.5471	0	0	0.0771845	-0.261618	0.244613	1.00481	1.5708	0	0
1.93	-2.09277	1.52672	0.627603	0.725735	0.225833	0.930106	0.426886	-0.0761692	-0.0791088	0.212531	-0.316573	0	0	-0.178926	-0.0235218	-0.124877	0.276421	-0.126836	0	0	-0.0768908	0.0949708	-0.147487	-0.0924586	-0.36855	0.26856	0.822671	1.3895	0	0	0.0674981	-0.262371	0.227195	1.01034	1.5708	0	0
1.94	-2.06504	1.52868	0.600468	0.724975	0.216381	0.92872	0.405415	-0.074847	-0.0671604	0.143756	-0.331178	0	0	-0.190572	-0.0251235	-0.126108	0.27982	-0.123274	0	0	-0.0853321	0.0954119	-0.135931	-0.116918	-0.330863	0.157169	0.82789	1.53703	0	0	0.0767471	-0.258158	0.232547	1.01174	1.5708	0	0
1.95	-2.05378	1.52986	0.590245	0.724236	0.206813	0.927196	0.39034	-0.0741934	-0.0610975	0.0955197	-0.333232	0	0	-0.200198	-0.0271522	-0.127568	0.285384	-0.118573	0	0	-0.086675	0.0955068	-0.13851	-0.113815	-0.33354	0.167622	0.827326	1.52915	0	0	0.0752784	-0.255539	0.225573	1.01296	1.5708	0	0
1.96	-2.02066	1.53114	0.558179	0.723468	0.197225	0.925792	0.380147	-0.0733748	-0.0609743	0.068242	-0.328576	0	0	-0.210087	-0.0297025	-0.129606	0.292019	-0.113874	0	0	-0.0889974	0.0961127	-0.141167	-0.11031	-0.33617	0.178123	0.826888	1.52214	0	0	0.0733708	-0.252268	0.217715	1.01308	1.5708	0	0
1.97	-1.98811	1.5318	0.526643	0.722671	0.187575	0.924513	0.376368	-0.0719019	-0.0660779	0.0619419	-0.323676	0	0	-0.219127	-0.0327369	-0.131115	0.299145	-0.11092	0	0	-0.0909507	0.0972616	-0.143051	-0.107352	-0.337841	0.185871	0.82594	1.51776	0	0	0.0718425	-0.248783	0.211516	1.01104	1.5708	0	0
